# xmcd CD database file
#
# Track frame offsets:
#	150
#	13303
#	25281
#	36983
#	49286
#	60943
#	73129
#	85986
#	99636
#	112793
#	125581
#	138835
#	151964
#	164776
#	178117
#	190227
#	202755
#	217289
#	231140
#	245170
#	259958
#	273863
#	286568
#	300246
#	312195
#	324869
#	337535
#
# Disc length: 4683 seconds
#
# Revision: 3
# Processed by: cddbd v1.4PL0 Copyright (c) Steve Scherf et al.
# Submitted via: CDex 1.40Release
#
DISCID=7e12491b
DTITLE=Jimmie Davis - Nobody's Darlin' But Mine - Disc 5
DYEAR=1900
DGENRE=
TTITLE0=That's Why I'm Nobody's Darling
TTITLE1=Do You Ever Think of Me
TTITLE2=Prairie of Love
TTITLE3=Sweet Lorene
TTITLE4=Just Forgive and Forget
TTITLE5=Pal of Long Ago
TTITLE6=If I Ever Cry You'll Never Know
TTITLE7=Sweetheart of West Texas
TTITLE8=Ten Tiny Toes
TTITLE9=I Wonder Where You Are
TTITLE10=In the West Where Life Is Free
TTITLE11=You'll Be Coming Back Some Day
TTITLE12=Hard Hearted Mama
TTITLE13=Jimmie Travelin' Blues
TTITLE14=I Wonder Who's Kissing Her Now
TTITLE15=Pi Rootin' Around
TTITLE16=High Geared Daddy
TTITLE17=Honkey Tonk Blues
TTITLE18=Nobody's Darlin But Mine
TTITLE19=One,Two,Three,Four
TTITLE20=Have You Ever Been in Heaven
TTITLE21=Greatest Mistake in My Life
TTITLE22=(Sweetheart) Please Be True to Me
TTITLE23=By the Grave of Nobody's Darlin'
TTITLE24=Shackles and Chains
TTITLE25=Call Me Back Pal O'Mine
TTITLE26=Just a Girl That Men Forget
EXTD=
EXTT0=
EXTT1=
EXTT2=
EXTT3=
EXTT4=
EXTT5=
EXTT6=
EXTT7=
EXTT8=
EXTT9=
EXTT10=
EXTT11=
EXTT12=
EXTT13=
EXTT14=
EXTT15=
EXTT16=
EXTT17=
EXTT18=
EXTT19=
EXTT20=
EXTT21=
EXTT22=
EXTT23=
EXTT24=
EXTT25=
EXTT26=
PLAYORDER=
